<svg width="80" height="80" viewBox="0 0 80 80" fill="none" xmlns="http://www.w3.org/2000/svg">
<rect width="80" height="80" fill="#7F52FF"/>
<path fill-rule="evenodd" clip-rule="evenodd" d="M55.8073 29.0497C55.8073 23.0039 48.6864 19.7726 44.1365 23.7538H35.8117C31.2618 19.7726 24.1409 23.0038 24.1409 29.0497V31.8147C19.7486 30.9599 16.6551 32.4744 14.694 34.3048C13.7145 35.219 13.037 36.1895 12.6042 36.9269C12.3864 37.298 12.2265 37.617 12.1182 37.8506C11.9298 38.257 11.8585 38.3985 11.835 38.4418C11.8318 38.4441 11.8269 38.453 11.8253 38.4569C11.8237 38.4607 11.8254 38.4595 11.835 38.4418C11.8499 38.4309 11.8317 38.5557 11.3205 39.919L14.6149 41.1544L15.2298 39.5148L15.2413 39.4865C15.2541 39.4557 15.2769 39.4025 15.3103 39.3305C15.3772 39.1862 15.4853 38.9691 15.6386 38.708C15.948 38.1809 16.425 37.5021 17.0948 36.877C18.376 35.6811 20.4379 34.5909 23.7593 35.329L24.1409 35.4138V42.4067C24.1409 46.2932 27.2914 49.4437 31.1779 49.4437H33.7861C33.755 49.5788 33.7061 49.765 33.6321 49.9869C33.4569 50.5125 33.15 51.2123 32.6292 51.9066C31.642 53.2229 29.7445 54.7214 25.9001 54.7214H24.1409V58.2399H25.9001C30.852 58.2399 33.7924 56.22 35.444 54.0177C36.2427 52.9529 36.7055 51.8934 36.9701 51.0995C37.103 50.7007 37.1881 50.3624 37.2412 50.1147C37.2678 49.9906 37.2865 49.8884 37.2993 49.8119C37.3274 49.643 37.3329 49.6226 37.3363 49.6018C37.3393 49.5835 37.3406 49.5649 37.3542 49.4437H39.9741V49.4445H41.7157L41.7229 49.4448C41.7426 49.4458 41.7838 49.4484 41.8436 49.4549C41.9637 49.4679 42.1543 49.496 42.3917 49.5559C42.8682 49.6762 43.5112 49.9189 44.156 50.4072C45.3663 51.3237 46.9435 53.3859 46.9435 58.2407V60H50.462V58.2407C50.462 54.1519 49.4807 51.3416 48.0865 49.4437H48.7703C52.5988 49.4437 55.7131 46.3866 55.8052 42.5802C59.7001 44.1928 63.129 43.1448 65.5087 41.717C66.7647 40.9634 67.7565 40.0932 68.4314 39.4183C69.1557 38.694 69.7293 37.9248 70.3322 37.1163L70.3322 37.1163L70.3335 37.1146L70.3357 37.1116C70.4181 37.0011 70.501 36.8899 70.585 36.7779L67.7702 34.6668L66.7174 36.0706L66.7155 36.0731L66.7144 36.0745L66.6851 36.1118C66.656 36.1483 66.6081 36.2072 66.5423 36.2844C66.4105 36.4392 66.2086 36.6653 65.9435 36.9303C65.4089 37.4649 64.6415 38.1341 63.6984 38.6999C61.8386 39.8158 59.4132 40.4843 56.5941 39.0747L55.8073 38.6814V29.0497ZM44.1365 23.7538L35.8117 23.7539L39.9741 27.3959L44.1365 23.7539L44.1365 23.7538ZM46.4534 26.4018C48.7283 24.4112 52.2888 26.0267 52.2888 29.0497V42.4067C52.2888 44.35 50.7136 45.9252 48.7703 45.9252H31.1779C29.2346 45.9252 27.6594 44.35 27.6594 42.4067V29.0497C27.6594 26.0267 31.2199 24.4112 33.4948 26.4018L33.4948 26.4018L37.6571 30.0438L37.6572 30.0438C38.9837 31.2046 40.9646 31.2046 42.2911 30.0438L46.4534 26.4018L46.4534 26.4018Z" fill="white"/>
</svg>
