# Blender v2.93.4 OBJ File: 'Kodot.blend'
# www.blender.org
mtllib grass-4.mtl
o Plane.006
v -0.000000 0.027411 0.142017
v 0.000000 0.000000 0.142370
v -0.000000 0.026586 -0.116525
v 0.000000 0.000000 -0.160532
v -0.000000 0.063900 0.000000
v 0.000000 0.000000 0.000000
v 0.000000 0.000000 -0.096979
v 0.000000 0.107370 -0.075584
v -0.000000 0.047488 0.100721
v 0.000000 0.000000 0.096979
v 0.000000 0.000000 -0.106776
v 0.000000 0.153787 -0.106776
v -0.000000 0.186998 -0.031344
v 0.000000 0.000000 -0.005281
v 0.000000 0.000000 0.048489
v -0.000000 0.129217 0.090418
v -0.000000 0.064566 0.116219
v 0.000000 0.000000 0.116219
vt 0.130971 0.781061
vt 0.229029 0.781061
vt 0.229029 0.874748
vt 0.130971 0.874748
vt 0.130971 0.406313
vt 0.229029 0.406313
vt 0.229029 0.500000
vt 0.130971 0.500000
vt 0.130971 0.593687
vt 0.229029 0.593687
vt 0.229029 0.687374
vt 0.130971 0.687374
vt 0.130971 0.218939
vt 0.229029 0.218939
vt 0.229029 0.312626
vt 0.130971 0.312626
vt 0.130971 0.125252
vt 0.229029 0.125252
vn 1.0000 0.0000 -0.0000
usemtl ground
s off
f 12/1/1 11/2/1 4/3/1 3/4/1
f 16/5/1 15/6/1 6/7/1 5/8/1
f 13/9/1 14/10/1 7/11/1 8/12/1
f 17/13/1 18/14/1 10/15/1 9/16/1
f 8/12/1 7/11/1 11/2/1 12/1/1
f 5/8/1 6/7/1 14/10/1 13/9/1
f 9/16/1 10/15/1 15/6/1 16/5/1
f 1/17/1 2/18/1 18/14/1 17/13/1
