# Blender v2.93.4 OBJ File: 'Kodot.blend'
# www.blender.org
mtllib mailbox.mtl
o Cube.008_Cube.009
v 0.050000 0.699633 1.876553
v 0.050000 0.649633 1.876553
v 0.050000 0.699633 2.126553
v 0.050000 0.649633 2.126553
v -0.050000 0.699633 1.876553
v -0.050000 0.649633 1.876553
v -0.050000 0.699633 2.126553
v -0.050000 0.649633 2.126553
v 0.100000 0.700000 1.801553
v 0.100000 0.700000 2.201553
v -0.100000 0.700000 1.801553
v -0.100000 0.700000 2.201553
v 0.025000 0.648979 1.976553
v 0.025000 0.018559 1.976553
v 0.025000 0.648979 2.026553
v 0.025000 0.018559 2.026553
v -0.025000 0.648979 1.976553
v -0.025000 0.018559 1.976553
v -0.025000 0.648979 2.026553
v -0.025000 0.018559 2.026553
v 0.050000 0.012166 1.876553
v 0.050000 0.000000 1.876553
v 0.050000 0.012166 2.126553
v 0.050000 0.000000 2.126553
v -0.050000 0.012166 1.876553
v -0.050000 0.000000 1.876553
v -0.050000 0.012166 2.126553
v -0.050000 0.000000 2.126553
v 0.003622 0.900000 1.801553
v 0.100000 0.803622 1.801553
v 0.018698 0.898813 1.801553
v 0.033404 0.895283 1.801553
v 0.047376 0.889495 1.801553
v 0.060271 0.881593 1.801553
v 0.071771 0.871771 1.801553
v 0.081593 0.860271 1.801553
v 0.089495 0.847376 1.801553
v 0.095283 0.833404 1.801553
v 0.098813 0.818698 1.801553
v 0.100000 0.803622 2.201553
v 0.003622 0.900000 2.201553
v 0.098813 0.818698 2.201553
v 0.095283 0.833404 2.201553
v 0.089495 0.847376 2.201553
v 0.081593 0.860271 2.201553
v 0.071771 0.871771 2.201553
v 0.060271 0.881593 2.201553
v 0.047376 0.889495 2.201553
v 0.033404 0.895283 2.201553
v 0.018698 0.898813 2.201553
v -0.100000 0.803622 1.801553
v -0.003622 0.900000 1.801553
v -0.098813 0.818698 1.801553
v -0.095283 0.833404 1.801553
v -0.089495 0.847376 1.801553
v -0.081593 0.860271 1.801553
v -0.071771 0.871771 1.801553
v -0.060271 0.881593 1.801553
v -0.047376 0.889495 1.801553
v -0.033404 0.895283 1.801553
v -0.018698 0.898813 1.801553
v -0.003622 0.900000 2.201553
v -0.100000 0.803622 2.201553
v -0.018698 0.898813 2.201553
v -0.033404 0.895283 2.201553
v -0.047376 0.889495 2.201553
v -0.060271 0.881593 2.201553
v -0.071771 0.871771 2.201553
v -0.081593 0.860271 2.201553
v -0.089495 0.847376 2.201553
v -0.095283 0.833404 2.201553
v -0.098813 0.818698 2.201553
vt 0.625000 0.500000
vt 0.875000 0.500000
vt 0.875000 0.750000
vt 0.625000 0.750000
vt 0.479106 0.710867
vt 0.479106 0.650731
vt 0.539076 0.650731
vt 0.539076 0.710868
vt 0.648301 0.650436
vt 0.648301 0.711230
vt 0.370788 0.711230
vt 0.370788 0.650436
vt 0.493456 0.664697
vt 0.526057 0.664697
vt 0.526057 0.697298
vt 0.493456 0.697298
vt 0.369318 0.711273
vt 0.369318 0.649156
vt 0.649621 0.649156
vt 0.649621 0.711273
vt 0.479937 0.711523
vt 0.479937 0.650794
vt 0.538102 0.650794
vt 0.538102 0.711523
vt 0.240168 0.700223
vt 0.240168 0.832150
vt 0.238755 0.851345
vt 0.234550 0.870068
vt 0.227658 0.887857
vt 0.218248 0.904274
vt 0.206551 0.918916
vt 0.192856 0.931421
vt 0.177499 0.941481
vt 0.160860 0.948850
vt 0.143347 0.953345
vt 0.125392 0.954855
vt 0.116766 0.954855
vt 0.098811 0.953345
vt 0.081299 0.948850
vt 0.064659 0.941481
vt 0.049303 0.931421
vt 0.035608 0.918916
vt 0.023911 0.904274
vt 0.014500 0.887857
vt 0.007608 0.870068
vt 0.003403 0.851345
vt 0.001990 0.832150
vt 0.001990 0.700223
vt 0.739501 0.699088
vt 0.739501 0.863309
vt 0.278488 0.863309
vt 0.278488 0.699088
vt 0.489723 0.634230
vt 0.509781 0.634230
vt 0.509781 0.656591
vt 0.489723 0.656591
vt 0.279062 0.865846
vt 0.279062 0.864985
vt 0.739367 0.864985
vt 0.739367 0.865846
vt 0.738277 0.700564
vt 0.738277 0.829209
vt 0.278899 0.829208
vt 0.278899 0.700564
vt 0.625000 0.500000
vt 0.875000 0.500000
vt 0.875000 0.750000
vt 0.625000 0.750000
vt 0.538212 -0.000478
vt 0.535572 0.660311
vt 0.477421 0.660105
vt 0.480061 -0.000683
vt 0.540151 -0.001534
vt 0.540151 0.659509
vt 0.479545 0.659509
vt 0.479546 -0.001534
vt 0.125000 0.500000
vt 0.375000 0.500000
vt 0.375000 0.750000
vt 0.125000 0.750000
vt 0.539121 0.000191
vt 0.539121 0.663344
vt 0.478372 0.663344
vt 0.478372 0.000191
vt 0.539304 0.000131
vt 0.539304 0.656135
vt 0.479937 0.656135
vt 0.479937 0.000131
vt 0.487906 0.009415
vt 0.530637 0.009666
vt 0.530637 0.079501
vt 0.487906 0.079250
vt 0.405064 0.001341
vt 0.610569 0.001341
vt 0.610569 0.010309
vt 0.405064 0.010309
vt 0.402273 0.000000
vt 0.615151 0.000000
vt 0.615151 0.010736
vt 0.402273 0.010736
vt 0.125000 0.500000
vt 0.375000 0.500000
vt 0.375000 0.750000
vt 0.125000 0.750000
vt 0.404463 -0.000323
vt 0.614177 -0.000323
vt 0.614177 0.011080
vt 0.404463 0.011080
vt 0.407470 0.001664
vt 0.614177 0.001664
vt 0.614177 0.010633
vt 0.407470 0.010633
vt 0.739367 0.867640
vt 0.279062 0.867640
vt 0.739367 0.869389
vt 0.279062 0.869389
vt 0.739367 0.871051
vt 0.279062 0.871051
vt 0.739367 0.872585
vt 0.279062 0.872585
vt 0.739367 0.877311
vt 0.279062 0.877311
vt 0.739350 0.918650
vt 0.278899 0.918650
vt 0.278899 0.912325
vt 0.739350 0.912325
vt 0.278899 0.909698
vt 0.739350 0.909698
vt 0.278899 0.906852
vt 0.739350 0.906852
vt 0.278899 0.903856
vt 0.739350 0.903856
vt 0.278899 0.900785
vt 0.739350 0.900785
vt 0.279062 0.863191
vt 0.739367 0.863191
vt 0.279062 0.861442
vt 0.739367 0.861442
vt 0.279062 0.859780
vt 0.739367 0.859780
vt 0.279062 0.858246
vt 0.739367 0.858246
vt 0.279062 0.853520
vt 0.739367 0.853520
vt 0.279090 0.877320
vt 0.739372 0.877320
vt 0.739372 0.886924
vt 0.279090 0.886924
vt 0.739372 0.890042
vt 0.279090 0.890042
vt 0.739372 0.893420
vt 0.279090 0.893420
vt 0.739372 0.896975
vt 0.279090 0.896975
vt 0.739372 0.900620
vt 0.279090 0.900620
vt 0.240953 0.701076
vt 0.240953 0.832166
vt 0.239527 0.851240
vt 0.235285 0.869844
vt 0.228330 0.887520
vt 0.218833 0.903833
vt 0.207030 0.918382
vt 0.193210 0.930807
vt 0.177714 0.940804
vt 0.160923 0.948126
vt 0.143251 0.952592
vt 0.125964 0.955271
vt 0.117260 0.955271
vt 0.098309 0.952592
vt 0.080637 0.948126
vt 0.063846 0.940804
vt 0.048350 0.930807
vt 0.034530 0.918382
vt 0.022726 0.903833
vt 0.013230 0.887520
vt 0.006275 0.869844
vt 0.002033 0.851240
vt 0.000607 0.832166
vt 0.000607 0.701076
vn 0.0000 1.0000 0.0000
vn 0.0000 0.0000 1.0000
vn -1.0000 0.0000 0.0000
vn 0.0000 -1.0000 0.0000
vn 1.0000 0.0000 0.0000
vn 0.0000 0.0000 -1.0000
vn 0.0785 0.9969 0.0000
vn 0.2334 0.9724 0.0000
vn 0.3827 0.9239 -0.0000
vn 0.5225 0.8526 -0.0000
vn 0.6494 0.7604 -0.0000
vn 0.7604 0.6494 -0.0000
vn 0.8526 0.5225 0.0000
vn 0.9239 0.3827 0.0000
vn 0.9724 0.2334 0.0000
vn 0.9969 0.0785 0.0000
vn -0.0785 0.9969 -0.0000
vn -0.2334 0.9724 -0.0000
vn -0.3827 0.9239 0.0000
vn -0.5225 0.8526 0.0000
vn -0.6494 0.7604 0.0000
vn -0.7604 0.6494 0.0000
vn -0.8526 0.5225 0.0000
vn -0.9239 0.3827 0.0000
vn -0.9724 0.2334 0.0000
vn -0.9969 0.0785 0.0000
usemtl Material.006
s off
f 1/1/1 5/2/1 7/3/1 3/4/1
f 4/5/2 3/6/2 7/7/2 8/8/2
f 8/9/3 7/10/3 5/11/3 6/12/3
f 6/13/4 2/14/4 4/15/4 8/16/4
f 2/17/5 1/18/5 3/19/5 4/20/5
f 6/21/6 5/22/6 1/23/6 2/24/6
f 10/25/2 40/26/2 42/27/2 43/28/2 44/29/2 45/30/2 46/31/2 47/32/2 48/33/2 49/34/2 50/35/2 41/36/2 62/37/2 64/38/2 65/39/2 66/40/2 67/41/2 68/42/2 69/43/2 70/44/2 71/45/2 72/46/2 63/47/2 12/48/2
f 12/49/3 63/50/3 51/51/3 11/52/3
f 11/53/4 9/54/4 10/55/4 12/56/4
f 29/57/1 52/58/1 62/59/1 41/60/1
f 9/61/5 30/62/5 40/63/5 10/64/5
f 13/65/1 17/66/1 19/67/1 15/68/1
f 16/69/2 15/70/2 19/71/2 20/72/2
f 20/73/3 19/74/3 17/75/3 18/76/3
f 18/77/4 14/78/4 16/79/4 20/80/4
f 14/81/5 13/82/5 15/83/5 16/84/5
f 18/85/6 17/86/6 13/87/6 14/88/6
f 21/89/1 25/90/1 27/91/1 23/92/1
f 24/93/2 23/94/2 27/95/2 28/96/2
f 28/97/3 27/98/3 25/99/3 26/100/3
f 26/101/4 22/102/4 24/103/4 28/104/4
f 22/105/5 21/106/5 23/107/5 24/108/5
f 26/109/6 25/110/6 21/111/6 22/112/6
f 29/57/7 41/60/7 50/113/7 31/114/7
f 31/114/8 50/113/8 49/115/8 32/116/8
f 32/116/9 49/115/9 48/117/9 33/118/9
f 33/118/10 48/117/10 47/119/10 34/120/10
f 34/120/11 47/119/11 46/121/11 35/122/11
f 35/123/12 46/124/12 45/125/12 36/126/12
f 36/126/13 45/125/13 44/127/13 37/128/13
f 37/128/14 44/127/14 43/129/14 38/130/14
f 38/130/15 43/129/15 42/131/15 39/132/15
f 39/132/16 42/131/16 40/133/16 30/134/16
f 62/59/17 52/58/17 61/135/17 64/136/17
f 64/136/18 61/135/18 60/137/18 65/138/18
f 65/138/19 60/137/19 59/139/19 66/140/19
f 66/140/20 59/139/20 58/141/20 67/142/20
f 67/142/21 58/141/21 57/143/21 68/144/21
f 68/145/22 57/146/22 56/147/22 69/148/22
f 69/148/23 56/147/23 55/149/23 70/150/23
f 70/150/24 55/149/24 54/151/24 71/152/24
f 71/152/25 54/151/25 53/153/25 72/154/25
f 72/154/26 53/153/26 51/155/26 63/156/26
f 11/157/6 51/158/6 53/159/6 54/160/6 55/161/6 56/162/6 57/163/6 58/164/6 59/165/6 60/166/6 61/167/6 52/168/6 29/169/6 31/170/6 32/171/6 33/172/6 34/173/6 35/174/6 36/175/6 37/176/6 38/177/6 39/178/6 30/179/6 9/180/6
