# Blender v2.93.4 OBJ File: 'Kodot.blend'
# www.blender.org
mtllib house.mtl
o Cube.009_Cube.001
v -0.500000 0.000000 0.500000
v -0.500000 1.000000 0.500000
v -0.500000 0.000000 -0.500000
v -0.500000 1.000000 -0.500000
v 0.500000 0.000000 0.500000
v 0.500000 1.000000 0.500000
v 0.500000 0.000000 -0.500000
v 0.500000 1.000000 -0.500000
v -0.540000 0.997514 0.540000
v -0.540000 1.017514 0.540000
v -0.540000 0.997514 -0.540000
v -0.540000 1.017514 -0.540000
v 0.540000 0.997514 0.540000
v 0.540000 1.017514 0.540000
v 0.540000 0.997514 -0.540000
v 0.540000 1.017514 -0.540000
v 0.000000 0.997514 -0.540000
v 0.000000 1.277514 -0.540000
v 0.000000 0.997514 0.540000
v 0.000000 1.277514 0.540000
vt 0.505286 0.000533
vt 0.505286 0.485337
vt 0.418521 0.485337
vt 0.418521 0.000533
vt 0.505276 0.001006
vt 0.505276 0.485329
vt 0.418510 0.485329
vt 0.418510 0.001006
vt 0.505321 -0.000547
vt 0.505321 0.485461
vt 0.418555 0.485461
vt 0.418555 -0.000547
vt 0.505452 0.000416
vt 0.505452 0.485396
vt 0.418686 0.485396
vt 0.418686 0.000416
vt 0.505321 -0.483426
vt 0.418555 -0.483426
vt 0.505321 0.482331
vt 0.505321 0.965209
vt 0.418555 0.965209
vt 0.418555 0.482331
vt 0.314296 0.805420
vt 0.314296 0.702187
vt 0.407800 0.702187
vt 0.407800 0.805420
vt 0.461956 0.486429
vt 0.461956 0.620611
vt 0.415204 0.494224
vt 0.415204 0.486429
vt 0.307848 0.719686
vt 0.307848 0.686405
vt 0.401352 0.686405
vt 0.401352 0.719686
vt 0.461729 0.620789
vt 0.461729 0.488225
vt 0.508481 0.488225
vt 0.508481 0.495789
vt 0.307848 0.869504
vt 0.307848 0.723009
vt 0.401352 0.723009
vt 0.401352 0.869504
vt 0.307848 0.626076
vt 0.307848 0.485649
vt 0.401352 0.485649
vt 0.401352 0.626076
vt 0.401352 0.487119
vt 0.401352 0.624512
vt 0.307848 0.624512
vt 0.307848 0.487119
vt 0.307848 0.924256
vt 0.307848 0.777762
vt 0.401352 0.777762
vt 0.401352 0.924256
vt 0.508549 0.486594
vt 0.508549 0.496075
vt 0.461797 0.621816
vt 0.461797 0.486594
vt 0.508265 0.485150
vt 0.508265 0.499091
vt 0.461512 0.620649
vt 0.461512 0.485150
vn -1.0000 0.0000 0.0000
vn 0.0000 0.0000 -1.0000
vn 1.0000 0.0000 0.0000
vn 0.0000 0.0000 1.0000
vn 0.0000 -1.0000 0.0000
vn 0.0000 1.0000 0.0000
vn -0.4338 0.9010 0.0000
vn 0.4338 0.9010 0.0000
usemtl house-texture
s off
f 1/1/1 2/2/1 4/3/1 3/4/1
f 3/5/2 4/6/2 8/7/2 7/8/2
f 7/9/3 8/10/3 6/11/3 5/12/3
f 5/13/4 6/14/4 2/15/4 1/16/4
f 3/17/5 7/9/5 5/12/5 1/18/5
f 8/19/6 4/20/6 2/21/6 6/22/6
f 9/23/1 10/24/1 12/25/1 11/26/1
f 17/27/2 18/28/2 16/29/2 15/30/2
f 15/31/3 16/32/3 14/33/3 13/34/3
f 19/35/4 20/36/4 10/37/4 9/38/4
f 17/39/5 15/40/5 13/41/5 19/42/5
f 18/43/7 12/44/7 10/45/7 20/46/7
f 16/47/8 18/48/8 20/49/8 14/50/8
f 11/51/5 17/52/5 19/53/5 9/54/5
f 13/55/4 14/56/4 20/57/4 19/58/4
f 11/59/2 12/60/2 18/61/2 17/62/2
