<svg width="24" height="24" viewBox="0 0 24 24" fill="none" xmlns="http://www.w3.org/2000/svg">
<path d="M7.71478 14.8569L5.63855 21.3234C5.60525 21.4287 5.60597 21.5419 5.64061 21.6468C5.67524 21.7517 5.74203 21.8431 5.8315 21.9079C5.92098 21.9727 6.02859 22.0077 6.13907 22.0079C6.24955 22.0081 6.3573 21.9736 6.44702 21.9091L11.9988 17.9409L17.5505 21.9091C17.6403 21.9736 17.748 22.0081 17.8585 22.0079C17.969 22.0077 18.0766 21.9727 18.1661 21.9079C18.2555 21.8431 18.3223 21.7517 18.357 21.6468C18.3916 21.5419 18.3923 21.4287 18.359 21.3234L16.2828 14.8569L21.7842 10.8088C21.873 10.7434 21.939 10.6516 21.9726 10.5466C22.0062 10.4415 22.0058 10.3285 21.9715 10.2237C21.9372 10.1188 21.8706 10.0275 21.7813 9.96271C21.692 9.89791 21.5846 9.86295 21.4742 9.86281L14.653 9.82511L12.4984 3.36875C12.4632 3.26414 12.396 3.17322 12.3064 3.10882C12.2167 3.04441 12.1092 3.00977 11.9988 3.00977C11.8884 3.00977 11.7808 3.04441 11.6912 3.10882C11.6015 3.17322 11.5344 3.26414 11.4991 3.36875L9.3446 9.82511L2.52331 9.86277C2.41299 9.86291 2.30553 9.89787 2.21624 9.96267C2.12695 10.0275 2.06039 10.1188 2.02604 10.2236C1.9917 10.3285 1.99131 10.4415 2.02495 10.5465C2.05858 10.6516 2.12452 10.7434 2.21337 10.8088L7.71478 14.8569Z" fill="white"/>
</svg>
